<svg xmlns="http://www.w3.org/2000/svg" width="77" height="43" viewBox="0 0 77 43" fill="none"><path d="M27.2911 41.6652C26.1865 40.6355 25.2768 39.3482 24.4971 37.9967C23.1325 35.6797 22.0279 33.1696 20.7933 30.7883C20.6633 30.4665 20.4034 30.1447 20.0785 30.016C18.2591 29.1149 16.5046 28.2139 14.6203 27.4416C13.5806 26.991 12.476 26.8623 11.3713 26.6692C11.1764 26.6049 10.8515 26.798 10.6565 26.9267C7.66751 28.4713 5.13334 30.5952 2.72912 32.9122C2.1443 33.4914 1.49451 34.1351 0.909703 34.7143C0.714767 34.9074 0.454851 35.0361 0.259914 35.2292C0.194935 35.1648 0.0649789 35.1005 0 35.1005C0.129958 34.7143 0.259916 34.2638 0.454853 33.8776C1.68945 31.4963 3.7038 29.8873 5.71814 28.2783C6.23798 27.8921 6.69283 27.4416 7.27764 27.1841C8.25232 26.7336 8.6422 25.8969 8.83713 24.8672C9.09705 23.6443 9.5519 22.4858 9.74684 21.263C9.81181 20.6837 9.61688 20.0401 9.35696 19.4609C8.38228 17.2726 7.27764 15.1487 6.23798 13.0248C6.173 12.8961 6.10802 12.7674 6.04304 12.5743C5.65317 11.6089 5.8481 10.5791 6.49789 10.0643C7.0827 9.61373 8.12236 9.54937 8.96709 10.2573C10.3316 11.3515 11.4363 12.5743 11.7612 14.3764C11.9561 15.4705 12.1511 16.629 12.346 17.8519C13.2557 17.0152 14.0354 16.1785 14.8802 15.4705C17.3494 13.2823 20.2734 12.0594 23.6523 12.1238C24.3021 12.1238 24.9519 12.3169 25.6017 12.6387C26.8363 13.2179 27.0312 14.2477 26.1215 15.2131C24.3671 17.1439 22.1578 18.238 19.4937 18.0449C17.9992 17.9806 16.4397 17.9162 14.9451 17.8519C14.3603 17.8519 14.0354 17.9806 13.6456 18.4311C12.0861 20.3619 10.5266 22.2284 10.2667 24.8672C10.2667 24.9959 10.2017 25.1246 10.2017 25.382C11.4363 24.8672 12.5409 24.2879 13.7106 23.9017C16.6346 23.0007 19.5587 22.2284 22.4827 21.3917C22.9376 21.263 23.4574 21.0055 23.7823 20.6837C25.9266 18.5598 28.0059 16.4359 30.0852 14.3764C30.6051 13.9259 30.6051 13.4754 30.4101 12.8318C29.6954 10.5791 28.9806 8.26217 28.3308 5.94519C27.9409 4.59362 27.9409 3.17769 28.3958 1.82612C28.6557 0.860718 29.1106 0.152752 30.2152 0.0240326C31.3198 -0.104687 32.2295 0.281475 32.7494 1.24688C33.789 3.11333 34.5038 5.04414 34.5038 7.16804C34.5038 8.13344 34.3739 9.16321 34.2439 10.3861C34.8937 9.67809 35.5435 9.16321 35.9983 8.5196C37.9477 5.88083 40.6118 4.52926 43.8608 4.27182C45.5502 4.1431 46.5899 4.65798 47.0447 5.81647C47.3696 6.65316 47.3047 7.48984 46.7848 8.26217C45.6152 10.1286 43.7308 10.7722 41.7165 11.2227C39.3122 11.7376 36.908 12.1238 34.5038 12.6387C34.1139 12.703 33.6591 12.8961 33.3992 13.1536C30.865 15.6636 28.3308 18.238 25.7966 20.8768C26.0565 20.8768 26.2515 20.8768 26.5114 20.8768C29.9553 20.8124 33.3342 20.7481 36.7781 20.6194C37.103 20.6194 37.5578 20.3619 37.6878 20.1045C38.5975 18.5598 39.4422 17.0152 40.2869 15.4062C41.1317 13.7972 42.1713 12.4456 43.9907 11.8663C45.2903 11.4158 46.265 11.6089 46.9798 12.51C47.6945 13.3466 47.6945 14.2477 46.9798 15.4062C45.5502 17.7231 43.5359 19.4609 41.0017 20.555C40.6768 20.6837 40.4169 20.8124 39.8971 21.0055C40.7418 21.1986 41.3916 21.3917 41.9764 21.5848C43.081 21.9066 44.1207 22.2927 45.2253 22.6145C45.4203 22.6789 45.7452 22.7433 45.8751 22.6789C46.9798 22.0353 48.0194 21.3273 49.0591 20.6837C49.0591 19.2034 48.8641 17.4657 49.0591 15.8567C49.189 14.4408 49.6439 13.0248 50.2287 11.6733C50.9435 9.87117 52.6329 9.22757 54.4523 9.16321C54.9722 9.16321 55.6869 9.61374 56.0768 9.9999C57.1165 11.2227 57.4414 12.703 57.0515 14.312C56.5966 15.9854 55.7519 17.4013 54.6473 18.6886C54.3224 19.0747 53.9975 19.3965 53.6726 19.7827C53.6726 19.847 53.7376 19.9758 53.7376 20.0401C54.9072 19.9114 56.0768 19.847 57.1814 19.7183C57.3114 19.7183 57.4414 19.5896 57.5063 19.4609C59.0658 17.4013 61.2751 16.4359 63.8093 16.1141C65.5637 15.9211 67.3182 15.7923 69.0726 15.7923C69.7874 15.7923 70.5671 16.1141 71.2169 16.4359C72.7764 17.337 73.1013 19.2678 71.6718 20.3619C70.6971 21.1342 69.4625 21.6491 68.2279 21.9066C65.6287 22.4215 62.9646 22.4858 60.3004 21.9709C59.9106 21.9066 59.4557 21.8422 59.0658 21.6491C57.8962 21.0055 56.7266 21.0055 55.492 21.263C53.1528 21.7779 50.8135 22.2284 48.4743 22.6789C48.0194 22.7433 47.6296 23.0007 47.0447 23.2581C49.1241 24.1592 51.0085 24.9959 52.8928 25.7682C54.3874 26.4118 56.0118 26.9267 57.5063 27.5059C58.3511 27.8277 59.1308 27.699 59.9755 27.3772C61.73 26.6692 63.4844 25.8969 65.3038 25.382C68.8777 24.481 72.1916 25.4464 75.1806 27.4416C76.1553 28.0852 76.7401 29.1149 76.4802 30.3378C76.2203 31.5606 75.3106 32.2686 74.2059 32.5904C72.7114 33.0409 71.2169 33.234 69.6574 32.8478C67.5781 32.2686 65.4987 31.5606 63.4844 30.917C61.795 30.4021 60.1705 29.8229 58.4161 29.3724C60.0405 31.2388 60.9502 33.3627 61.535 35.6797C61.665 36.2589 61.795 36.9025 61.795 37.4818C61.73 39.3482 59.9755 40.378 58.481 39.3482C57.5063 38.7046 56.4667 37.7392 56.0118 36.6451C55.2971 34.9717 54.9072 33.0409 54.5173 31.2388C54.2574 30.016 54.2574 28.7931 54.1274 27.5059C48.2144 25.2533 42.4962 22.2927 35.9983 21.8422C35.9333 21.9709 35.8034 22.0353 35.7384 22.164C36.843 23.0007 38.0127 23.773 39.1173 24.6097C39.2473 24.7384 39.4422 24.7384 39.6371 24.8028C43.016 25.1246 45.6152 26.8623 47.8245 29.3724C48.9941 30.7239 49.384 32.2686 49.0591 34.0707C48.6692 36.3877 46.265 37.3531 44.5106 35.7441C43.4059 34.7143 42.4962 33.4271 41.7165 32.2042C40.8717 30.8527 40.222 29.3724 39.3772 27.7634C39.5722 30.0803 39.8321 32.1399 39.962 34.2638C40.027 35.6797 39.3122 36.9025 38.4675 37.9967C37.3629 39.477 35.4785 39.4126 34.4388 37.868C33.2042 36.0015 32.8793 33.942 33.7241 31.8181C34.6338 29.6298 35.4135 27.3128 37.1679 25.5751C37.2979 25.4464 37.2329 24.8028 37.103 24.6741C35.2186 23.1294 33.3992 21.7779 30.6701 21.9709C25.1468 22.3571 19.7536 23.2581 14.5553 25.189C14.2304 25.3177 13.9705 25.4464 13.5806 25.5751C15.0751 26.1544 16.3747 26.6692 17.7392 27.1841C20.6633 24.3523 24.1722 23.3869 28.1359 23.9661C29.5004 24.1592 30.8 24.6097 31.5148 26.0256C32.2945 27.5703 32.0346 28.9862 30.3452 29.5655C29.1755 29.9516 27.9409 30.016 26.7063 30.1447C25.9916 30.2091 25.2768 30.016 24.4971 29.8873C23.7823 29.8229 23.1325 29.6942 22.3527 29.7585C22.7426 29.9516 23.0675 30.1447 23.4574 30.3378C27.1612 32.1399 30.0852 34.6499 31.5798 38.5759C31.9047 39.4126 32.0996 40.1849 31.6447 41.0216C30.735 42.7593 28.8506 43.1455 27.2911 41.6652ZM38.2726 27.8921C37.5578 29.5655 37.8177 31.5606 37.103 33.2984C36.973 33.2984 36.7781 33.234 36.6481 33.234C36.7131 31.625 36.7781 30.016 36.843 28.407C36.7781 28.407 36.6481 28.3426 36.5831 28.3426C35.9333 30.0803 35.1536 31.7537 34.6338 33.5558C34.2439 34.843 34.7637 36.0659 35.4785 37.16C36.1283 38.1254 37.103 38.1898 37.6878 37.2244C38.2726 36.3233 38.8574 35.3579 38.8574 34.3281C38.9874 32.2042 38.7274 30.0803 38.6625 27.9565C38.5325 27.8921 38.4025 27.8921 38.2726 27.8921ZM41.2616 26.5405C42.5612 28.0208 43.8608 29.3724 45.0304 30.724C45.2903 30.9814 45.3553 31.3676 45.4852 31.6894C45.3553 31.7537 45.2253 31.8181 45.0954 31.9468C43.8608 30.5952 42.6262 29.308 41.3916 27.9565C41.2616 28.0208 41.1966 28.1495 41.0667 28.2139C42.1063 29.8873 43.081 31.625 44.1857 33.2984C44.4456 33.7489 44.9004 34.1351 45.2903 34.4569C46.33 35.2935 47.2397 34.9074 47.4996 33.6202C47.6945 32.3973 47.4346 31.3032 46.6549 30.2734C45.3553 28.6001 43.4059 27.5059 41.2616 26.5405ZM58.546 34.9074C57.7663 33.2984 56.9865 31.6894 56.1418 30.1447C56.0118 30.2091 55.9469 30.2091 55.8169 30.2734C55.8819 32.2686 56.2717 34.1994 57.1814 35.9371C57.5713 36.7738 58.2861 37.4174 58.9359 38.061C59.1308 38.2541 59.7156 38.3828 59.9106 38.2541C60.1705 38.061 60.3654 37.5462 60.3004 37.2887C59.9106 35.8084 59.3907 34.2638 58.8709 32.7835C58.676 32.2042 58.2211 31.6894 57.8962 31.1745C58.1561 32.3973 59.1308 33.4271 58.546 34.9074ZM62.3798 27.7634C64.5241 28.2783 66.8633 27.8921 68.8777 29.1149C66.7983 29.0506 64.719 29.0506 62.5097 28.9862C62.8346 29.1793 62.9646 29.308 63.0945 29.3724C65.5637 30.1447 67.968 30.9814 70.4372 31.5606C71.4768 31.8181 72.5815 31.4963 73.6861 31.3676C74.4009 31.2388 75.0507 30.917 75.1806 30.1447C75.3755 29.308 74.7907 28.7931 74.141 28.407C72.1266 27.0554 69.9173 26.4762 67.5781 26.4762C65.7587 26.3474 64.0692 27.0554 62.3798 27.7634ZM50.6836 19.654C51.4633 17.7875 52.308 15.9211 53.0878 14.119C53.2177 14.1833 53.3477 14.2477 53.4777 14.312C53.0228 15.9854 52.568 17.5944 52.0481 19.3965C53.6726 17.7231 55.1021 16.0498 55.622 13.8615C55.8819 12.7674 55.6869 11.802 54.9722 10.9653C54.7772 10.7079 54.3874 10.4504 54.1924 10.5148C53.0228 10.6435 51.9831 11.0297 51.3983 12.1238C50.6186 13.6041 50.3587 15.1487 50.2937 16.7577C50.2937 17.7231 50.2937 18.6886 50.2937 19.654C50.4886 19.654 50.6186 19.654 50.6836 19.654ZM61.0152 20.555C63.4194 20.4906 65.7587 20.555 68.1629 20.3619C68.9426 20.2976 69.7224 19.9758 70.3722 19.5896C70.762 19.3965 71.1519 18.8173 71.1519 18.3668C71.1519 18.0449 70.6321 17.6588 70.2422 17.4013C69.9173 17.2083 69.4625 17.1439 69.1376 17.0795C66.6034 16.9508 64.1342 17.2083 61.73 18.0449C61.0152 18.3024 60.3654 18.8173 59.7156 19.1391C59.7156 19.2034 59.7806 19.2678 59.7806 19.3965C61.9249 19.0104 64.1342 18.4311 66.3435 18.7529C66.3435 18.8173 66.3435 18.946 66.4085 19.0104C64.4591 19.3965 62.5097 19.7827 60.5604 20.1688C60.5604 20.2332 60.5604 20.3619 60.5604 20.4263C60.6253 20.4906 60.8203 20.555 61.0152 20.555ZM40.027 18.946C41.2616 17.6588 42.4312 16.3716 43.6658 15.1487C43.7308 15.2131 43.8608 15.2775 43.9258 15.3418C43.276 16.3716 42.6262 17.4657 41.8464 18.6242C43.7958 17.5301 45.0954 15.9854 46.0701 14.1833C46.4599 13.4754 45.7452 12.6387 44.9004 12.8961C44.0557 13.1536 43.016 13.5397 42.4962 14.1833C41.3916 15.5993 40.6118 17.2726 39.7021 18.8173C39.8321 18.8173 39.962 18.8816 40.027 18.946ZM38.9874 10.2573C40.3519 9.93554 41.7814 9.61373 43.146 9.16321C43.8608 8.90577 44.5755 8.45525 45.0954 7.876C45.4203 7.48984 45.7452 6.71751 45.5502 6.33135C45.3553 5.94519 44.5755 5.68775 44.0557 5.68775C42.3013 5.68775 40.6118 6.20263 39.1823 7.2324C38.3376 7.81164 37.7528 8.71268 37.038 9.48501C37.103 9.54937 37.103 9.61373 37.1679 9.61373C38.9224 8.97013 40.6768 8.32653 42.4312 7.61856C42.4962 7.74728 42.5612 7.94036 42.6262 8.06908C41.3916 8.71269 40.157 9.42065 38.8574 10.0643C38.9224 10.1286 38.9874 10.193 38.9874 10.2573ZM31.5148 12.1238C31.6447 12.1238 31.7097 12.0594 31.8397 12.0594C31.6447 9.87117 31.4498 7.68292 31.2549 5.49467C31.3848 5.49467 31.5148 5.49467 31.7097 5.43031C31.9696 7.03931 32.2295 8.58397 32.5544 10.2573C33.789 8.13344 33.0743 3.04897 31.3848 1.43996C30.735 0.796356 29.9553 0.989437 29.6304 1.82612C29.1755 3.11333 29.2405 4.40054 29.5654 5.68775C30.0852 7.61856 30.735 9.54937 31.3198 11.4802C31.3198 11.7376 31.4498 11.9307 31.5148 12.1238ZM25.2768 13.9902C23.9122 12.3169 18.0641 14.119 16.2447 15.9211C18.2591 15.5993 20.0785 14.6338 22.1578 14.7626C21.508 15.1487 20.8582 15.4062 20.2084 15.6636C19.5587 15.9211 18.8439 16.1785 18.0641 16.4359C20.7283 17.2083 23.9772 16.0498 25.2768 13.9902ZM9.61688 17.6588C9.68186 17.5944 9.74684 17.5944 9.81182 17.5301C9.42194 16.1141 9.03207 14.6982 8.57722 13.2823C8.70718 13.2179 8.83713 13.1536 9.03207 13.0892C9.61688 14.4408 10.2017 15.8567 10.8515 17.2083C10.8515 16.0498 10.8515 14.8913 10.3966 13.9902C9.87679 12.8961 8.96709 12.0594 8.12236 11.094C7.9924 10.9653 7.47258 10.9009 7.34262 11.0297C7.14768 11.1584 7.0827 11.6089 7.14768 11.8663C7.9924 13.8615 8.83713 15.728 9.61688 17.6588ZM27.2911 28.6644C28.1359 28.6644 28.9806 28.5357 29.7603 28.2139C30.67 27.8921 30.735 27.3128 30.2802 26.5405C29.8903 25.7682 29.1755 25.5108 28.3308 25.3177C25.4717 24.6741 22.8076 25.4464 20.2734 26.6049C19.8836 26.798 19.6236 27.1198 19.2987 27.3772C19.6886 27.5059 20.0135 27.5703 20.2734 27.5059C22.2878 27.1841 24.3021 26.8623 26.3165 26.4762C27.0312 26.3474 27.681 26.3474 28.4608 26.8623C26.4464 27.2485 24.692 27.6346 22.9376 28.0208C22.9376 28.0852 22.9376 28.2139 22.9376 28.2783C24.4971 28.407 25.8616 28.6644 27.2911 28.6644ZM29.9553 40.8285C30.4751 40.5711 30.8 39.9275 30.4751 39.3482C29.6954 37.868 28.9156 36.3877 28.0059 35.0361C27.5511 34.3925 26.7063 33.942 26.0565 33.4271C25.9916 33.4914 25.9916 33.4914 25.9266 33.5558C26.7063 34.843 27.5511 36.1302 28.3958 37.4818C28.2658 37.5462 28.1359 37.6105 28.0059 37.6749C26.6414 36.1946 25.7317 34.3281 23.7823 33.2984C24.692 35.1648 25.6017 37.0313 26.6414 38.8334C27.0962 39.6057 27.876 40.2493 28.5907 40.7642C28.9156 41.086 29.5654 41.0216 29.9553 40.8285Z" fill="#526E3E"></path></svg>